<svg width="15" height="15" viewBox="0 0 15 15" fill="none" xmlns="http://www.w3.org/2000/svg">
<path d="M8.622 13.641L7.879 14.384C7.80465 14.4588 7.71623 14.5182 7.61883 14.5587C7.52144 14.5993 7.41699 14.6201 7.3115 14.6201C7.20601 14.6201 7.10156 14.5993 7.00417 14.5587C6.90677 14.5182 6.81835 14.4588 6.744 14.384L0.236001 7.88398C0.161169 7.80963 0.101781 7.72121 0.0612551 7.62381C0.0207293 7.52642 -0.000134792 7.42197 -0.000134783 7.31648C-0.000134774 7.21099 0.0207293 7.10654 0.0612552 7.00915C0.101781 6.91175 0.161169 6.82333 0.236001 6.74898L6.744 0.23598C6.81835 0.161148 6.90677 0.101762 7.00417 0.0612366C7.10156 0.0207108 7.20601 -0.000153269 7.3115 -0.00015326C7.41699 -0.000153251 7.52144 0.0207109 7.61883 0.0612367C7.71623 0.101763 7.80465 0.161148 7.879 0.23598L8.622 0.97898C8.69797 1.05441 8.75803 1.14433 8.79862 1.2434C8.8392 1.34247 8.85949 1.44867 8.85828 1.55573C8.85706 1.66278 8.83438 1.76851 8.79156 1.86663C8.74874 1.96475 8.68666 2.05329 8.609 2.12698L4.575 5.96998L14.2 5.96998C14.4122 5.96998 14.6157 6.05427 14.7657 6.2043C14.9157 6.35433 15 6.55781 15 6.76998L15 7.84598C15 8.05815 14.9157 8.26164 14.7657 8.41167C14.6157 8.5617 14.4122 8.64598 14.2 8.64598L4.578 8.64598L8.609 12.492C8.68681 12.5657 8.74902 12.6543 8.79193 12.7525C8.83484 12.8507 8.85758 12.9566 8.85879 13.0637C8.86 13.1709 8.83967 13.2772 8.79899 13.3764C8.75831 13.4756 8.69813 13.5655 8.622 13.641V13.641Z" fill="#515151"/>
</svg>
