<svg xmlns="http://www.w3.org/2000/svg" width="93.095" height="37.176" viewBox="0 0 93.095 37.176">
  <g id="logo" transform="translate(-411 -9.912)">
    <path id="Контур_26" data-name="Контур 26" d="M.441,0H3.7l.651-3.738H7.035L7.665,0h3.192L7.581-17.01H3.738ZM4.662-5.88,5.67-12.726,6.7-5.88ZM17.346.231c3.738,0,5.019-2.1,5.019-5.565V-11.7c0-3.465-1.281-5.523-5.019-5.523-3.759,0-5.019,2.037-5.019,5.523v6.342C12.327-1.869,13.587.231,17.346.231Zm0-2.478c-1.344,0-1.491-1.092-1.491-2.247v-8.043c0-1.176.189-2.205,1.491-2.205s1.491,1.029,1.491,2.205v8.043C18.837-3.339,18.648-2.247,17.346-2.247ZM29.4.231c3.717,0,4.767-2.142,4.767-5.1V-6.279h-3.36V-4.62c0,1.239-.063,2.373-1.386,2.373-1.218,0-1.491-.924-1.491-2.373v-7.728c0-1.26.1-2.394,1.491-2.394,1.344,0,1.386,1.092,1.386,2.289v1.575h3.36v-1.428c0-2.94-1.113-4.914-4.767-4.914-3.822,0-4.977,2.184-4.977,5.691v6.09C24.423-2.037,25.578.231,29.4.231ZM36.288,0h3.444V-7.371h1.6c2.751,0,4.767-1.092,4.767-4.746,0-3.129-1.365-4.893-4.41-4.893h-5.4Zm3.444-9.807v-4.767H40.95c1.7,0,1.89.882,1.89,2.394,0,1.68-.336,2.373-1.869,2.373Z" transform="translate(458 39)" fill="#003187"/>
    <g id="logo-2" data-name="logo" transform="translate(411.01 9.912)">
      <path id="Контур_21" data-name="Контур 21" d="M156.1,9.294V35.443a1.738,1.738,0,0,1-1.743,1.734H135.193V30.555a4.486,4.486,0,0,0,2.577-2.985c.028-.1.052-.2.073-.286.048-.186.1-.391.137-.508.083-.089.227-.235.357-.367l.211-.213a4.538,4.538,0,0,0,1.146-4.312c-.027-.1-.052-.2-.073-.285-.05-.19-.106-.4-.134-.52.028-.122.084-.334.135-.526.022-.086.047-.178.073-.278a4.535,4.535,0,0,0-1.135-4.3l-.2-.2c-.134-.137-.283-.287-.367-.378-.036-.119-.089-.327-.139-.516q-.034-.131-.073-.283a4.479,4.479,0,0,0-3.132-3.173h-.008l-.272-.073c-.177-.048-.372-.1-.49-.137-.089-.086-.234-.233-.363-.367l-.2-.2A4.421,4.421,0,0,0,129,9.455h0l-.274.073c-.174.048-.363.1-.486.13V1.734A1.738,1.738,0,0,1,129.965,0h16.846V8.132a1.162,1.162,0,0,0,1.162,1.162Z" transform="translate(-118.937 0)" fill="#004ac9"/>
      <path id="Контур_22" data-name="Контур 22" d="M36.659,7.624,29.551.508A1.743,1.743,0,0,0,28.316,0h-.443V8.132a1.162,1.162,0,0,0,1.162,1.162h8.132V8.851a1.735,1.735,0,0,0-.508-1.227ZM18.507,19.684a2.188,2.188,0,0,0-.55-2.09,3.389,3.389,0,0,1-1.369-2.418,2.147,2.147,0,0,0-1.5-1.525,3.31,3.31,0,0,1-2.374-1.395,2.1,2.1,0,0,0-2.053-.566,3.266,3.266,0,0,1-2.741,0,2.1,2.1,0,0,0-2.053.56,3.31,3.31,0,0,1-2.373,1.395,2.144,2.144,0,0,0-1.5,1.531,3.383,3.383,0,0,1-1.37,2.416,2.189,2.189,0,0,0-.551,2.093,3.433,3.433,0,0,1,0,2.789,2.187,2.187,0,0,0,.55,2.09,3.394,3.394,0,0,1,1.371,2.416,2.143,2.143,0,0,0,1.5,1.53,4.437,4.437,0,0,1,1.149.363v8.305l4.647-2.324,4.647,2.324v-8.3a4.424,4.424,0,0,1,1.15-.363,2.144,2.144,0,0,0,1.5-1.53,3.384,3.384,0,0,1,1.371-2.416,2.187,2.187,0,0,0,.55-2.09,3.435,3.435,0,0,1,0-2.79ZM9.285,25.559a4.647,4.647,0,1,1,4.647-4.647A4.647,4.647,0,0,1,9.285,25.559Z" transform="translate(0 0)" fill="#09f"/>
    </g>
  </g>
</svg>
