<svg width="38" height="38" viewBox="0 0 38 38" fill="none" xmlns="http://www.w3.org/2000/svg">
<path d="M37.173 9.294V35.443C37.1725 35.6713 37.127 35.8973 37.0391 36.108C36.9512 36.3188 36.8226 36.5101 36.6608 36.6711C36.4989 36.8322 36.3069 36.9597 36.0957 37.0465C35.8845 37.1333 35.6583 37.1777 35.43 37.177H16.266V30.555C16.8945 30.2866 17.4535 29.8782 17.9001 29.3609C18.3467 28.8435 18.6692 28.231 18.843 27.57C18.871 27.47 18.895 27.37 18.916 27.284C18.964 27.098 19.016 26.893 19.053 26.776C19.136 26.687 19.28 26.541 19.41 26.409L19.621 26.196C20.1672 25.6368 20.5598 24.946 20.7605 24.1906C20.9613 23.4351 20.9635 22.6406 20.767 21.884C20.74 21.784 20.715 21.684 20.694 21.599C20.644 21.409 20.588 21.199 20.56 21.079C20.588 20.957 20.644 20.745 20.695 20.553C20.717 20.467 20.742 20.375 20.768 20.275C20.964 19.5211 20.9626 18.7295 20.7638 17.9763C20.565 17.2232 20.1756 16.5339 19.633 15.975L19.433 15.775C19.299 15.638 19.15 15.488 19.066 15.397C19.03 15.278 18.977 15.07 18.927 14.881C18.9043 14.7937 18.88 14.6993 18.854 14.598C18.6545 13.8417 18.2603 13.1508 17.7109 12.5941C17.1614 12.0374 16.4757 11.6344 15.722 11.425H15.714L15.442 11.352C15.265 11.304 15.07 11.252 14.952 11.215C14.863 11.129 14.718 10.982 14.589 10.848L14.389 10.648C13.841 10.0829 13.152 9.67438 12.3932 9.46465C11.6345 9.25492 10.8335 9.25159 10.073 9.455L9.799 9.528C9.625 9.576 9.43601 9.628 9.31301 9.658V1.734C9.31405 1.27599 9.49584 0.836906 9.81886 0.512202C10.1419 0.187498 10.58 0.00342467 11.038 0L27.884 0V8.132C27.884 8.44018 28.0064 8.73574 28.2243 8.95366C28.4423 9.17158 28.7378 9.294 29.046 9.294H37.173Z" fill="#004AC9"/>
<path d="M36.669 7.624L29.561 0.508C29.3986 0.346301 29.206 0.218204 28.9941 0.131035C28.7822 0.043867 28.5551 -0.000660817 28.326 -3.8926e-07H27.883V8.132C27.883 8.44018 28.0054 8.73574 28.2233 8.95366C28.4413 9.17158 28.7368 9.294 29.045 9.294H37.177V8.851C37.1771 8.62314 37.1322 8.3975 37.045 8.18697C36.9579 7.97644 36.8301 7.78514 36.669 7.624V7.624ZM18.517 19.684C18.6141 19.3178 18.6145 18.9327 18.5181 18.5664C18.4216 18.2 18.2318 17.8649 17.967 17.594C17.5809 17.3106 17.2593 16.9485 17.0233 16.5318C16.7873 16.115 16.6424 15.6529 16.598 15.176C16.5031 14.8129 16.3146 14.481 16.0514 14.2134C15.7883 13.9458 15.4595 13.7519 15.098 13.651C14.6254 13.6025 14.1687 13.4528 13.7591 13.2121C13.3494 12.9714 12.9964 12.6453 12.724 12.256C12.4633 11.9872 12.1355 11.793 11.7746 11.6935C11.4136 11.5939 11.0326 11.5927 10.671 11.69C10.2414 11.8886 9.77379 11.9915 9.30051 11.9915C8.82723 11.9915 8.3596 11.8886 7.93001 11.69C7.56894 11.592 7.18826 11.5922 6.82732 11.6907C6.46638 11.7892 6.1383 11.9822 5.87701 12.25C5.60471 12.6392 5.25185 12.9652 4.8424 13.2059C4.43294 13.4466 3.97648 13.5963 3.50401 13.645C3.14163 13.7461 2.81226 13.9409 2.54896 14.2096C2.28567 14.4783 2.09772 14.8116 2.00401 15.176C1.95962 15.6527 1.81454 16.1146 1.57837 16.5311C1.34221 16.9476 1.02032 17.3092 0.634007 17.592C0.368647 17.8632 0.178335 18.1987 0.0817393 18.5656C-0.0148567 18.9326 -0.01442 19.3183 0.0830065 19.685C0.278157 20.124 0.378992 20.5991 0.378992 21.0795C0.378992 21.5599 0.278157 22.035 0.0830065 22.474C-0.014193 22.8402 -0.0146056 23.2253 0.0818092 23.5917C0.178224 23.9581 0.368159 24.2931 0.633007 24.564C1.01901 24.8472 1.34071 25.2089 1.577 25.6253C1.81329 26.0417 1.95881 26.5034 2.00401 26.98C2.09778 27.3442 2.28577 27.6774 2.54907 27.9459C2.81236 28.2145 3.14171 28.409 3.50401 28.51C3.90173 28.5782 4.2883 28.7003 4.65301 28.873V37.178L9.30001 34.854L13.947 37.178V28.878C14.312 28.7051 14.6989 28.5829 15.097 28.515C15.4593 28.4139 15.7886 28.2194 16.0518 27.9508C16.3151 27.6823 16.5031 27.3492 16.597 26.985C16.6416 26.5082 16.7868 26.0463 17.0232 25.6298C17.2595 25.2134 17.5816 24.8518 17.968 24.569C18.2329 24.2981 18.4228 23.9631 18.5192 23.5967C18.6156 23.2303 18.6152 22.8452 18.518 22.479C18.3228 22.0398 18.222 21.5646 18.222 21.084C18.222 20.6034 18.3228 20.1282 18.518 19.689L18.517 19.684ZM9.29501 25.559C8.37592 25.559 7.47747 25.2865 6.71327 24.7758C5.94908 24.2652 5.35346 23.5395 5.00174 22.6903C4.65002 21.8412 4.55799 20.9068 4.7373 20.0054C4.9166 19.104 5.35919 18.276 6.00908 17.6261C6.65898 16.9762 7.48699 16.5336 8.38842 16.3543C9.28985 16.175 10.2242 16.267 11.0733 16.6187C11.9225 16.9705 12.6482 17.5661 13.1588 18.3303C13.6695 19.0945 13.942 19.9929 13.942 20.912C13.942 21.5223 13.8218 22.1265 13.5883 22.6903C13.3547 23.2541 13.0124 23.7664 12.5809 24.1979C12.1494 24.6294 11.6371 24.9717 11.0733 25.2053C10.5095 25.4388 9.90526 25.559 9.29501 25.559V25.559Z" fill="#0099FF"/>
</svg>
