<svg xmlns="http://www.w3.org/2000/svg" width="32" height="32" viewBox="0 0 32 32">
  <path id="add" d="M28.571,32H3.429A3.429,3.429,0,0,0,0,35.429V60.571A3.429,3.429,0,0,0,3.429,64H28.571A3.429,3.429,0,0,0,32,60.571V35.429A3.429,3.429,0,0,0,28.571,32ZM26.286,50a.86.86,0,0,1-.857.857H18.857v6.571a.86.86,0,0,1-.857.857H14a.86.86,0,0,1-.857-.857V50.857H6.571A.86.86,0,0,1,5.714,50V46a.86.86,0,0,1,.857-.857h6.571V38.571A.86.86,0,0,1,14,37.714h4a.86.86,0,0,1,.857.857v6.571h6.571a.86.86,0,0,1,.857.857Z" transform="translate(0 -32)" fill="#09f"/>
</svg>
