<svg xmlns="http://www.w3.org/2000/svg" width="27.429" height="24" viewBox="0 0 27.429 24">
  <path id="archive" data-name="archive" d="M1.714,54.286A1.712,1.712,0,0,0,3.429,56H24a1.712,1.712,0,0,0,1.714-1.714V38.857h-24Zm8.571-11.357a.645.645,0,0,1,.643-.643H16.5a.645.645,0,0,1,.643.643v.429A.645.645,0,0,1,16.5,44H10.929a.645.645,0,0,1-.643-.643ZM25.714,32h-24A1.712,1.712,0,0,0,0,33.714v2.571a.86.86,0,0,0,.857.857H26.571a.86.86,0,0,0,.857-.857V33.714A1.712,1.712,0,0,0,25.714,32Z" transform="translate(0 -32)" fill="#004ac9"/>
</svg>
