<svg xmlns="http://www.w3.org/2000/svg" width="19.244" height="24.163" viewBox="0 0 19.244 24.163">
  <path id="save-button" d="M11.225,6.418V0H1.2A1.166,1.166,0,0,0,0,1.133v21.9a1.166,1.166,0,0,0,1.2,1.133H18.041a1.166,1.166,0,0,0,1.2-1.133V7.551H12.428A1.173,1.173,0,0,1,11.225,6.418Zm3.831,9.975-4.832,4.516a.892.892,0,0,1-1.2,0L4.188,16.393A.75.75,0,0,1,4.752,15.1H8.018V11.326a.779.779,0,0,1,.8-.755h1.6a.779.779,0,0,1,.8.755V15.1h3.266a.751.751,0,0,1,.565,1.291ZM18.893,4.955,13.987.33A1.241,1.241,0,0,0,13.135,0h-.306V6.041h6.415V5.753A1.1,1.1,0,0,0,18.893,4.955Z" fill="#fff"/>
</svg>
