<svg xmlns="http://www.w3.org/2000/svg" width="24" height="24" viewBox="0 0 24 24">
  <path id="Контур_2" data-name="Контур 2" d="M23.247,37.247l-4.494-4.494A2.571,2.571,0,0,0,16.935,32H2.571A2.571,2.571,0,0,0,0,34.571V53.429A2.571,2.571,0,0,0,2.571,56H21.429A2.571,2.571,0,0,0,24,53.429V39.065a2.571,2.571,0,0,0-.753-1.818ZM12,52.571a3.429,3.429,0,1,1,3.429-3.429A3.429,3.429,0,0,1,12,52.571Zm5.143-16.314v5.385a.643.643,0,0,1-.643.643H4.071a.643.643,0,0,1-.643-.643V36.071a.643.643,0,0,1,.643-.643H16.314a.643.643,0,0,1,.455.188l.186.186a.643.643,0,0,1,.188.455Z" transform="translate(0 -32)" fill="#004ac9"/>
</svg>
