<svg xmlns="http://www.w3.org/2000/svg" width="34.286" height="24" viewBox="0 0 34.286 24">
  <path id="save_web" data-name="save_web" d="M28.8,42.425a5.149,5.149,0,0,0-4.8-7,5.117,5.117,0,0,0-2.855.868,8.572,8.572,0,0,0-16,4.275c0,.145.005.289.011.434A7.716,7.716,0,0,0,7.714,56H27.429A6.857,6.857,0,0,0,28.8,42.425Zm-7.495,3.412-.579.579a1.291,1.291,0,0,1-1.848-.027l-1.736-1.848v6.745a1.283,1.283,0,0,1-1.286,1.286H15a1.283,1.283,0,0,1-1.286-1.286V44.541l-1.736,1.848a1.286,1.286,0,0,1-1.848.027l-.579-.579a1.28,1.28,0,0,1,0-1.816l4.966-4.966a1.28,1.28,0,0,1,1.816,0L21.3,44.021A1.285,1.285,0,0,1,21.305,45.837Z" transform="translate(0 -32)" fill="#004ac9"/>
</svg>
